<?xml version="1.0" encoding="UTF-8"?>
<svg width="697" height="242" xmlns="http://www.w3.org/2000/svg" xmlns:xlink="http://www.w3.org/1999/xlink">
 <metadata id="metadata8">image/svg+xml</metadata>
 <defs>
  <linearGradient id="linearGradient4270">
   <stop stop-color="#327583" id="stop4272" offset="0"/>
   <stop stop-color="#327583" stop-opacity="0" id="stop4274" offset="1"/>
  </linearGradient>
  <linearGradient y2="0.410939" x2="0.474053" y1="0.999516" x1="0.474053" id="linearGradient4276" xlink:href="#linearGradient4270"/>
 </defs>
 <g>
  <title>Layer 1</title>
  <g fill="#1a1915" stroke-width="1px" id="text4193"/>
  <path fill="#1a1915" stroke-width="1px" d="m318.296997,2.76586c-1.514984,0 -2.876007,0.53647 -4.087982,1.61187c-1.212006,0.94098 -2.047028,1.94985 -2.501007,3.02524l-56.576004,115.538032c-0.45401,0.806 -0.681,1.613998 -0.681,2.419998c0,1.612999 0.604996,3.023003 1.817001,4.232994c1.363983,1.210007 3.105988,1.815002 5.22699,1.815002c1.363007,0 2.649994,-0.334991 3.862,-1.007004c1.210999,-0.671997 2.121002,-1.613998 2.72702,-2.82399l18.176971,-36.898399l63.846008,0l18.179016,36.898399c1.211975,2.554001 3.40799,3.830994 6.588989,3.830994c2.121002,0 3.786011,-0.604996 4.997986,-1.815002c1.212006,-1.209991 1.818024,-2.619995 1.818024,-4.232994c0,-1.074997 -0.152008,-1.882004 -0.455017,-2.419998l-56.121002,-115.538032c-0.605988,-1.20982 -1.515991,-2.28514 -2.727997,-3.22612c-1.212006,-0.94097 -2.574982,-1.41099 -4.089996,-1.41099zm86.093994,0c-1.970001,0 -3.634979,0.60533 -4.997986,1.81514c-1.364014,1.20983 -2.044006,2.68871 -2.044006,4.43623l0,116.34377c0,1.748001 0.679993,3.226006 2.044006,4.435997c1.363007,1.210007 3.027985,1.815002 4.997986,1.815002l64.757996,0c1.970001,0 3.63501,-0.604996 4.998016,-1.815002c1.363983,-1.209991 2.044006,-2.687996 2.044006,-4.435997c0,-1.747002 -0.680023,-3.225998 -2.044006,-4.435997c-1.363007,-1.210007 -3.028015,-1.815002 -4.998016,-1.815002l-57.713989,0l0,-110.092771c0,-1.74752 -0.681,-3.2264 -2.044006,-4.43623c-1.362976,-1.20981 -3.031006,-1.81514 -5,-1.81514zm87.427002,0c-1.968994,0 -3.636993,0.60533 -5.001007,1.81514c-1.362976,1.20983 -2.043976,2.68871 -2.043976,4.43623l0,116.34377c0,1.748001 0.681,3.226006 2.043976,4.435997c1.364014,1.210007 3.032013,1.815002 5.001007,1.815002c1.968994,0 3.634003,-0.604996 4.998016,-1.815002c1.362976,-1.209991 2.043976,-2.687996 2.043976,-4.435997l0,-52.627197l39.309021,0c1.968994,0 3.63501,-0.605301 4.997986,-1.815102c1.363037,-1.209801 2.046021,-2.688698 2.046021,-4.436203c0,-1.747597 -0.682983,-3.226398 -2.046021,-4.436298c-1.362976,-1.209801 -3.028992,-1.815102 -4.997986,-1.815102l-39.309021,0l0,-44.964898l62.257019,0c1.968994,0 3.637024,-0.6053 5,-1.8151c1.364014,-1.2099 2.044006,-2.6863 2.044006,-4.43387c0,-1.74752 -0.679993,-3.2264 -2.044006,-4.43623c-1.362976,-1.20981 -3.031006,-1.81514 -5,-1.81514l-69.299011,0zm114.937012,0c-1.513977,0 -2.875977,0.53647 -4.088013,1.61187c-1.210999,0.94098 -2.046997,1.94985 -2.500977,3.02524l-56.575989,115.538032c-0.454041,0.806 -0.68103,1.613998 -0.68103,2.419998c0,1.612999 0.606018,3.023003 1.817993,4.232994c1.363037,1.210007 3.106018,1.815002 5.226013,1.815002c1.364014,0 2.650024,-0.334991 3.862,-1.007004c1.211975,-0.671997 2.122009,-1.613998 2.728027,-2.82399l18.175964,-36.898399l63.848999,0l18.176025,36.898399c1.211975,2.554001 3.407959,3.830994 6.588989,3.830994c2.120972,0 3.786987,-0.604996 4.997986,-1.815002c1.212036,-1.209991 1.817993,-2.619995 1.817993,-4.232994c0,-1.074997 -0.149963,-1.882004 -0.453003,-2.419998l-56.122986,-115.538032c-0.606018,-1.20982 -1.515991,-2.28514 -2.72699,-3.22612c-1.212036,-0.94097 -2.575989,-1.41099 -4.091003,-1.41099zm-288.458008,23.388839l25.675995,52.022203l-51.578003,0l25.902008,-52.022203zm288.458008,0l25.676025,52.022203l-51.578003,0l25.901978,-52.022203zm12.494019,134.756296q0,-1.694 1.192993,-2.865997q1.192993,-1.302994 2.915955,-1.302994l21.739014,0q4.772034,0 8.881042,1.82399q4.108948,1.694 7.157959,4.820007q3.18103,2.996994 4.903992,7.035004q1.856018,4.039001 1.856018,8.598999q0,4.168991 -1.458008,7.815994q-1.458008,3.647995 -3.976013,6.643997q-2.518982,2.867004 -6.097961,4.951004q-3.445984,1.953995 -7.423035,2.606003l20.14801,32.177994q0.39801,0.652008 0.663025,1.432999q0.39801,0.781998 0.39801,1.694q0,1.042007 -1.061035,2.345001q-0.927979,1.303009 -2.782959,1.303009q-1.193054,0 -2.254028,-0.652008q-0.927979,-0.651001 -1.590027,-1.692993l-22.666992,-36.348007l-12.328003,0l0,34.654007q0,1.694 -1.192993,2.865997q-1.192993,1.173004 -2.916016,1.173004q-1.722961,0 -2.915955,-1.173004q-1.192993,-1.171997 -1.192993,-2.865997l0,-75.040009l0,0zm8.217957,3.908005l0,28.401001l17.630005,0q2.916016,0 5.567017,-1.042007q2.651001,-1.172989 4.640015,-3.126999q1.987976,-1.953995 3.047974,-4.429001q1.192993,-2.605988 1.192993,-5.60199q0,-2.865997 -1.192993,-5.472q-1.059998,-2.606003 -3.047974,-4.559998q-1.989014,-1.95401 -4.640015,-2.996002q-2.651001,-1.173004 -5.567017,-1.173004l-17.630005,0zm-67.787964,-4.037994q0,-1.694 1.192993,-2.866013q1.192993,-1.172989 2.916016,-1.172989l40.295959,0q1.723022,0 2.916016,1.172989q1.192993,1.172012 1.192993,2.866013q0,1.692993 -1.192993,2.865997q-1.192993,1.171997 -2.916016,1.171997l-36.187012,0l0,29.052002l24.125,0q1.723022,0 2.916016,1.173004q1.192993,1.171997 1.192993,2.865997q0,1.694 -1.192993,2.865997q-1.192993,1.173004 -2.916016,1.173004l-24.125,0l0,29.962997l36.187012,0q1.723022,0 2.916016,1.173004q1.192993,1.171997 1.192993,2.865997q0,1.694 -1.192993,2.865997q-1.192993,1.173004 -2.916016,1.173004l-40.295959,0q-1.723022,0 -2.916016,-1.173004q-1.192993,-1.171997 -1.192993,-2.865997l0,-75.169998zm-19.639038,0q0,-1.694 1.192993,-2.866013q1.193054,-1.172989 2.916016,-1.172989q1.723999,0 2.916992,1.172989q1.192993,1.172012 1.192993,2.866013l0,75.169998q0,1.694 -1.192993,2.865997q-1.192993,1.173004 -2.916992,1.173004q-1.722961,0 -2.916016,-1.173004q-1.192993,-1.171997 -1.192993,-2.865997l0,-75.169998zm-71.845978,0q0,-1.694 1.192993,-2.866013q1.192993,-1.172989 2.916992,-1.172989q1.723022,0 2.916016,1.172989q1.192993,1.172012 1.192993,2.866013l0,36.608002l42.284027,0l0,-36.608002q0,-1.694 1.192993,-2.866013q1.192993,-1.172989 2.916016,-1.172989q1.723999,0 2.916992,1.172989q1.192993,1.172012 1.192993,2.866013l0,75.169998q0,1.694 -1.192993,2.865997q-1.192993,1.173004 -2.916992,1.173004q-1.723022,0 -2.916016,-1.173004q-1.192993,-1.171997 -1.192993,-2.865997l0,-30.485001l-42.284027,0l0,30.485001q0,1.694 -1.192993,2.865997q-1.192993,1.173004 -2.916016,1.173004q-1.723999,0 -2.916992,-1.173004q-1.192993,-1.171997 -1.192993,-2.865997l0,-75.169998zm-38.097992,37.388992q-3.97702,-1.171997 -8.484009,-2.865997q-4.373993,-1.824005 -8.084991,-4.298996q-3.57901,-2.475006 -5.964996,-5.73201q-2.386017,-3.386993 -2.386017,-7.685989q0,-4.951004 2.252991,-8.729004q2.254028,-3.908005 5.832001,-6.514008q3.57901,-2.735992 7.95401,-4.039001q4.506012,-1.432999 8.881012,-1.432999q2.915985,0 5.964996,0.521011q3.181,0.390991 6.22998,1.563995q3.048004,1.171997 5.832001,3.257004q2.916016,2.084 5.302002,5.340988q0.795013,1.173004 0.795013,2.736008q0,1.824005 -1.192993,3.126999q-1.059998,1.171997 -2.916016,1.171997q-2.385986,0 -3.710999,-2.084q-1.591003,-2.606003 -3.712006,-4.039001q-2.121002,-1.562988 -4.373993,-2.345001q-2.121002,-0.781998 -4.373993,-0.911987q-2.121002,-0.26001 -3.843994,-0.26001q-2.651001,0 -5.567017,0.651001q-2.916992,0.651001 -5.434998,2.084q-2.385986,1.432999 -3.97699,3.908997q-1.589996,2.345001 -1.589996,5.993011q0,2.604996 2.252991,4.689987q2.385986,2.084 5.700012,3.647003q3.313995,1.564011 6.892975,2.736008q3.578003,1.172989 6.097015,2.084991q5.036987,1.824005 9.145996,3.908005q4.109009,2.084 7.024994,4.951004q3.049011,2.865997 4.640015,6.643997q1.722992,3.778 1.722992,8.988998q0,5.210999 -2.252991,9.770996q-2.253998,4.559006 -6.097992,7.947006q-3.711029,3.257004 -8.616028,5.210999q-4.903992,1.824005 -10.205994,1.824005q-3.712006,0 -7.820984,-0.912003q-3.97702,-1.042007 -7.688019,-2.736008q-3.578979,-1.82399 -6.627991,-4.298996q-2.915985,-2.475998 -4.506989,-5.472q-0.662018,-1.041992 -0.662018,-2.084q0,-1.563995 1.192993,-2.867004q1.325012,-1.302002 3.181,-1.302002q2.518005,0 3.710999,2.084q1.193024,2.345001 3.447021,4.169006q2.385986,1.694 5.169006,2.996002q2.783997,1.173004 5.567993,1.824005q2.915985,0.520996 5.169006,0.520996q3.578979,0 7.024994,-1.302002q3.446991,-1.302994 5.964996,-3.518005q2.651001,-2.214996 4.242004,-5.210999q1.591003,-3.126999 1.591003,-6.643997q0,-3.518005 -1.458008,-6.123001q-1.325989,-2.606003 -3.843994,-4.559998q-2.519012,-1.953995 -5.964996,-3.516998q-3.447021,-1.563995 -7.423004,-2.867004zm-70.415009,-38.431992q0.39801,-1.042007 1.458008,-1.95401q1.059998,-1.041992 2.385986,-1.041992q1.326019,0 2.386017,0.912003q1.059998,0.911987 1.591003,2.084l32.73999,74.649994q0.264984,0.520996 0.264984,1.563004q0,1.563004 -1.059998,2.735992q-1.059998,1.171997 -2.915985,1.171997q-2.783997,0 -3.843994,-2.474991l-10.605011,-23.841003l-37.247009,0l-10.604004,23.841003q-0.529999,1.173004 -1.590973,1.82399q-1.060028,0.651001 -2.253021,0.651001q-1.855988,0 -3.048981,-1.171997q-1.059998,-1.172989 -1.059998,-2.735992q0,-0.781998 0.396973,-1.563004l33.006012,-74.649994zm3.843994,12.115997l-15.110992,33.612l30.089996,0l-14.979004,-33.612zm-42.134979,3.778q-4.772003,-4.03801 -11.13501,-7.294998q-6.362,-3.257004 -13.653015,-3.257004q-7.024994,0 -13.255005,2.604996q-6.22998,2.606003 -10.868988,7.166q-4.506989,4.559006 -7.15799,10.682999q-2.651001,6.123001 -2.651001,13.027008q0,6.904999 2.651001,13.028q2.651001,6.123001 7.15799,10.682999q4.639008,4.429001 10.868988,7.035004q6.230011,2.604996 13.255005,2.604996q7.423004,0 13.786011,-2.735001q6.494995,-2.865997 11.134003,-7.817001q0.662994,-0.781998 1.591003,-1.173004q1.059998,-0.389999 2.121002,-0.389999q1.722992,0 2.518005,1.171997q0.927979,1.173004 0.927979,2.606003q0,2.084 -1.192993,3.257004q-5.832001,6.253006 -13.785004,9.770004q-7.95401,3.388 -17.100006,3.388q-8.747986,0 -16.436005,-3.257004q-7.687988,-3.257004 -13.38797,-8.859009q-5.700012,-5.60199 -9.014008,-13.15799q-3.314011,-7.556 -3.314011,-16.154999q0,-8.598007 3.314011,-16.154007q3.313995,-7.556 9.014008,-13.158005q5.699982,-5.731995 13.38797,-8.988998q7.688019,-3.256989 16.436005,-3.256989q8.881012,0 16.569,3.386993q7.821014,3.386993 13.653015,9.25q0.662994,0.651001 1.192993,1.692993q0.531006,1.042007 0.531006,2.085007q0,1.692993 -1.192993,2.604996q-1.193024,0.912003 -2.783997,0.912003q-1.988007,0 -3.181,-1.302994z" id="text4197"/>
  <g id="g4278">
   <path fill="#57afc2" d="m204.345978,2.765311l-78.787384,47.483133l0,-47.265512l-27.179321,0l0,63.644854l-91.111748,54.908722l91.111748,54.46151l0,63.927048l27.179321,0l0,-47.67923l79.380112,47.449646l13.632492,-24.488907l-93.012604,-55.516159l0,-77.678139l92.419891,-55.370281l-13.632507,-23.876684zm-105.966705,95.530649l0,45.170563l-37.767204,-22.542236l37.767204,-22.628326z" id="rect4203"/>
   <path fill="url(#linearGradient4276)" id="path4260" d="m204.345978,2.765311l-78.787384,47.483133l0,-47.265512l-27.179321,0l0,63.644854l-91.111748,54.908722l91.111748,54.46151l0,63.927048l27.179321,0l0,-47.67923l79.380112,47.449646l13.632492,-24.488907l-93.012604,-55.516159l0,-77.678139l92.419891,-55.370281l-13.632507,-23.876684zm-105.966705,95.530649l0,45.170563l-37.767204,-22.542236l37.767204,-22.628326z"/>
  </g>
 </g>
</svg>