<?xml version="1.0" encoding="utf-8"?>
<!-- Generator: Adobe Illustrator 23.0.1, SVG Export Plug-In . SVG Version: 6.00 Build 0)  -->
<svg version="1.1" id="Layer_1" xmlns="http://www.w3.org/2000/svg" xmlns:xlink="http://www.w3.org/1999/xlink" x="0px" y="0px"
	 viewBox="0 0 897.9 1086.5" style="enable-background:new 0 0 897.9 1086.5;" xml:space="preserve">
<g transform="translate(0.000000,1600.000000) scale(0.100000,-0.100000)">
	<path d="M4378.1,11322.7c-1.4-0.2-5.4-0.9-8.8-1.6c-14.1-2.5-30.1-10.9-43.2-22.3c-15.3-13.4-30.2-34.5-43.5-61.2
		c-16.1-32.5-24-54.6-54.2-152.2l-4-12.9l-7.1-1.7c-50.6-11.8-109.6-35.3-141.2-56.3c-13.7-9-30.2-25.2-34.9-34.1
		c-9-17.4-6-33.5,8.6-46.9c20.4-18.7,61.9-29.9,133.3-35.9c10.8-0.9,20-1.9,20.4-2.1c0.3-0.3,1.2-2.7,1.9-5.3
		c4-16.1,19.1-54.1,30.9-77.7l7.8-15.8h245.6h245.6l9.2,18.9c10.3,21.4,18.3,41,26.1,64.2c4.6,14,5.6,16.1,7.4,16.1
		c7.4,0,46.6,3.6,62.5,5.8c59.8,8.1,93.2,21.8,104.8,43c3.3,6.1,3.5,7.1,3.5,16.3c0,8.6-0.4,10.6-2.8,15.5
		c-11.4,23.2-47.7,47.7-103.2,69.6c-19.8,7.9-46.9,16.7-68.2,22.1l-14.9,3.9l-6.6,24.8c-16.4,62.3-29.8,100.4-47,135
		c-25.2,50.7-53.4,78.6-88.7,88.1c-11.7,3.1-32,3.2-42.8,0.1c-17.4-5.1-29.5-12.4-49.5-30.3c-19.4-17.5-26.4-21.7-35.7-21.7
		s-14.5,3.3-34.7,21.6c-20.3,18.5-32.9,26.5-48.1,30.5C4400.3,11322.3,4383,11323.6,4378.1,11322.7z M4323,10875.4
		c55.2-9.7,92.6-22.3,96.6-32.8c0.6-1.7,0.5-4-0.2-6.8c-1.6-6-13.6-17.7-23.2-22.7c-13.4-6.9-31.8-10.9-46.2-9.9
		c-19.4,1.2-35.4,15.9-43.9,40.2c-2.9,8.6-6.6,26.1-6.6,31.5c0,3.3,0.3,3.6,2.9,3.6C4303.9,10878.5,4313.1,10877.1,4323,10875.4z
		 M4679.2,10873.9c0-6.3-2.7-19.6-5.6-28.3c-7.4-21.9-20.2-36.4-35.7-41c-14.5-4.2-40.9,0.2-57.6,9.8c-11.9,6.7-21.1,17.6-21.1,24.8
		c0,7,9.5,13.3,30.8,20.5c20.5,6.8,72.5,18.1,85.9,18.6C4679.1,10878.5,4679.2,10878.4,4679.2,10873.9z"/>
	<path d="M3913,10729.5c-25.5-6.6-42.8-26.3-47-52.8c-0.8-5.8-1-90-0.8-327.4c0.3-304.4,0.4-320,2.2-325.9c7-23.5,23.2-39.2,46-45.1
		c7.6-1.9,13.2-2,195.6-2h188l14.6,168.2l14.6,168.1l3.3,6.7c3.6,7.3,10.4,13.7,17.3,16.1c6.1,2.1,18.5,1.7,24.2-0.9
		c6-2.7,11.7-7.8,14.9-13.2c5.6-9.5,6.2,0.8-11.3-202.8c-10.2-119.3-16.7-189.5-17.8-193.5c-2.5-9.6-7.4-17.9-15.9-26.5
		c-6.3-6.3-9.7-8.8-17.6-12.7c-13.8-6.7-20.1-7.9-45.7-7.9c-20,0-21.9-0.2-28.1-2.5c-9.3-3.3-15.3-8.5-19.1-16.4
		c-4.1-8.6-4.8-13.7-2.8-21.5c3.1-11.7,11.9-20.7,23.8-24.1c5.1-1.6,29.3-1.7,240.3-1.4l234.6,0.3l6.4,3c23.8,11,26.6,41.7,5.2,56.2
		c-8.3,5.6-13.6,6.5-36.3,6.5c-14.6,0-22.7,0.5-28.2,1.7c-23.6,4.9-44.5,22.3-50.5,42.3c-2.5,7.9-34.8,382.5-33.5,388.8
		c4.2,22.9,31.7,34,50.4,20.4c5.7-4.1,10.2-10.6,12.1-17c0.8-3.1,7.3-74.3,15.5-168.2c7.7-89.6,14.3-164.5,14.6-166.3l0.5-3.4h188
		c209.6,0,192.8-0.6,209.1,7.3c16.4,8.1,28.9,24.3,32.7,42.8c2.3,11,2.3,644,0,654.9c-5.1,24-23.2,42.5-47.2,48.5
		c-6.2,1.6-54.1,1.7-575.7,1.6C3937.1,10731.4,3920.1,10731.3,3913,10729.5z"/>
</g>
</svg>
