<svg
        xmlns="http://www.w3.org/2000/svg"
        xmlns:xlink="http://www.w3.org/1999/xlink"
        width="19px" height="18px">
    <path fill-rule="evenodd"  opacity="0.502" fill="rgba(255, 255, 255, 1)"
          d="M18.268,8.538 C18.230,8.538 18.192,8.531 18.154,8.516 C17.998,8.453 17.924,8.277 17.987,8.123 C18.814,6.083 18.344,3.760 16.787,2.203 C15.188,0.605 12.730,0.157 10.670,1.088 C10.517,1.154 10.338,1.089 10.269,0.936 C10.200,0.783 10.267,0.604 10.420,0.535 C12.709,-0.499 15.439,-0.001 17.215,1.774 C18.945,3.503 19.468,6.084 18.548,8.349 C18.501,8.467 18.387,8.538 18.268,8.538 ZM11.873,3.747 C11.722,3.816 11.541,3.749 11.472,3.596 C11.403,3.444 11.470,3.264 11.623,3.196 C12.811,2.658 14.229,2.917 15.151,3.839 C16.048,4.737 16.320,6.076 15.843,7.253 C15.796,7.369 15.682,7.441 15.563,7.441 C15.525,7.441 15.486,7.433 15.449,7.418 C15.294,7.355 15.219,7.179 15.282,7.025 C15.668,6.075 15.447,4.992 14.722,4.267 C13.978,3.523 12.833,3.316 11.873,3.747 ZM11.418,12.318 C11.851,12.599 12.624,13.023 12.941,12.707 L13.132,12.514 C14.189,11.441 15.101,10.517 17.661,12.574 C18.528,13.270 18.963,13.950 18.992,14.654 C19.034,15.673 18.222,16.443 17.506,17.123 C17.389,17.235 17.273,17.344 17.167,17.450 C16.795,17.821 16.203,18.007 15.457,18.007 C14.707,18.007 13.802,17.820 12.807,17.445 C10.624,16.622 8.250,14.996 6.120,12.867 C3.991,10.738 2.365,8.364 1.541,6.181 C0.792,4.197 0.790,2.568 1.535,1.823 C1.643,1.716 1.753,1.600 1.865,1.482 C2.546,0.767 3.333,-0.045 4.333,-0.001 C5.036,0.028 5.717,0.464 6.415,1.331 C8.473,3.890 7.545,4.803 6.471,5.860 L6.281,6.048 C6.105,6.224 5.773,7.036 8.862,10.125 C9.872,11.134 10.731,11.871 11.418,12.318 ZM5.853,5.618 L6.046,5.427 C7.050,4.438 7.656,3.842 5.942,1.709 C5.369,0.998 4.819,0.625 4.309,0.604 C4.293,0.603 4.276,0.603 4.261,0.603 C3.538,0.603 2.883,1.291 2.305,1.899 C2.188,2.021 2.074,2.141 1.964,2.252 C1.408,2.806 1.465,4.265 2.108,5.967 C2.902,8.071 4.479,10.370 6.549,12.439 C8.619,14.508 10.917,16.085 13.021,16.878 C14.724,17.521 16.183,17.577 16.738,17.022 C16.849,16.911 16.967,16.799 17.089,16.683 C17.712,16.091 18.418,15.421 18.387,14.678 C18.366,14.167 17.994,13.617 17.281,13.045 C15.148,11.331 14.552,11.938 13.563,12.938 L13.369,13.134 C12.899,13.607 12.131,13.503 11.087,12.825 C10.366,12.356 9.473,11.591 8.434,10.552 C5.870,7.990 5.050,6.422 5.853,5.618 Z"/>
</svg>