<?xml version="1.0" encoding="utf-8"?>
<!-- Generator: Adobe Illustrator 23.0.1, SVG Export Plug-In . SVG Version: 6.00 Build 0)  -->
<svg version="1.1" id="Layer_1" xmlns="http://www.w3.org/2000/svg" xmlns:xlink="http://www.w3.org/1999/xlink" x="0px" y="0px"
	 viewBox="0 0 180 180" style="enable-background:new 0 0 180 180;" xml:space="preserve">
<style type="text/css">
	.st0{fill:none;stroke:#0E6453;stroke-width:1.8356;stroke-miterlimit:10;}
	.st1{display:none;opacity:0.1;fill:#0E6453;}
	.st2{display:none;fill:#0E6453;}
	.st3{display:none;}
	.st4{display:inline;}
	.st5{fill:#0E6453;stroke:#0E6453;stroke-width:1.1841;stroke-miterlimit:10;}
	.st6{fill:#0E6453;}
</style>
<g>
	<path class="st0" d="M31.7,176.8c-7,0-13.2-2.9-19.8-9.6c-16.1-16.2-8.1-30.1-0.3-43.7c5.5-9.5,11.8-20.2,11.8-33.8
		S17.1,65.6,11.6,56C3.9,42.4-4.1,28.5,12,12.3c6.2-6.2,12.9-9.5,19.8-9.5c8.1,0,15.8,4.4,23.9,9.2c9.5,5.5,20.2,11.8,33.8,11.8
		s24.2-6.2,33.8-11.7c8.1-4.8,15.8-9.2,23.9-9.2c7,0,13.2,2.9,19.8,9.6c15.4,15.4,7,29-1.1,42.2c-6.6,11-13.6,22-10.3,36.3
		c3.3,13.6,8.8,23.1,13.6,31.9c8.4,15.1,15.4,27.2-2.6,44.8c-6.2,6.2-12.9,9.5-19.8,9.5c-8.1,0-15.8-4.4-23.9-9.2
		c-9.2-5.9-19.8-12.1-33.4-12.1s-24.2,6.2-33.8,11.7C47.5,172.4,39.8,176.8,31.7,176.8L31.7,176.8z"/>
</g>
<rect x="48.3" y="47.9" class="st1" width="82.5" height="82.5"/>
<path class="st2" d="M128,82.5c0.9-0.9,0.9-2.3,0-3.2c-0.8-0.8-2-0.9-3-0.3c-4.4,3.3-9.5,5.5-15,6.4v-1.8c0-2.7-1-5.3-2.6-7.5
	c4.3-4.3,6.7-10,6.7-16c0-1.3-1.1-2.3-2.4-2.3c-1.3,0-2.4,1-2.4,2.3c-0.1,4.7-2,9.2-5.5,12.6l-0.4-0.3c-0.6-7.2-7.1-12.7-14.7-12.1
	c-6.7,0.5-12.1,5.6-12.6,12.1L76,72.7c-3.5-3.4-5.4-8-5.5-12.8c0-1.3-1.1-2.3-2.4-2.3s-2.4,1-2.4,2.3c0,6,2.4,11.7,6.7,16
	C71,78,70,80.7,70,83.4v1.8c-5.5-0.8-10.6-2.9-15-6.1c-1-0.8-2.5-0.7-3.3,0.3S51,81.7,52,82.5l0,0c5.2,4,11.4,6.6,17.9,7.5v6.6
	c-6.3,5.4-9.8,13.2-9.9,21.3c0,1.3,1.1,2.3,2.4,2.3c1.3,0,2.4-1,2.4-2.3l0,0c0-5.3,1.9-10.5,5.3-14.6c0.4,9.7,8.3,17.5,18.3,18.2
	V71.7c-0.1-0.9,0.5-1.7,1.4-1.8s1.8,0.5,1.9,1.3c0,0.2,0,0.3,0,0.5v49.8c10-0.8,17.8-8.6,18.2-18.2c3.4,4.2,5.2,9.3,5.3,14.6
	c0,1.3,1.1,2.3,2.4,2.3s2.4-1,2.4-2.3c0-8.1-3.6-15.8-9.9-21.3V90C116.6,89.1,122.8,86.5,128,82.5z"/>
<g class="st3">
	<g class="st4">
		<path class="st5" d="M128,91c-1.3-1.5-3.4-3.1-4.3-5c-1.2-2.7,0.2-5.4,0.1-8.2c0-2.2-0.7-5-1.4-7.1c-1.3-3.5-3.5-6.3-6.3-8.5
			c-4.5-4.2-10.8-6.7-17.7-6.7c-7.9,0-14.9,3.3-19.5,8.6c3.9-2.8,8.6-4.4,13.4-4.4c6.5,0,12.7,2.8,17,7.6c4,4.5,6.1,10.4,5.7,16.5
			c-0.4,6.1-3.1,11.7-7.6,15.7c-4.2,3.7-9.5,5.8-15.1,5.8l0,0c-4,0-7.8-1-11.2-2.9c1.3,4.2,2.5,13.2-7.7,18.5l30.2,0c0,0,2.3-9,6-9
			c3.1,0,6.3,0.2,9.4,0.1c0.6,0.1,1.1,0.1,1.5-0.1c0,0,0,0,0.1,0c0,0,0,0,0,0c2.1-1.1,0.7-6,0.7-6c1.2-0.5,2-1.4,2-2v-0.1
			c0-0.8-1.2-1.5-2.9-1.7h0.8c1.3,0,2.3-0.7,2.3-1.5v-0.1c0-0.2-0.1-0.5-0.2-0.7c0.2-1,1.1-5.5,1.3-5.5C131.8,93.6,128,91,128,91z"
			/>
		<path class="st5" d="M72.4,102.1l5.1-4.6c7.9,7.7,20.5,8.1,28.8,0.7c8.7-7.8,9.5-21.1,1.7-29.8c-7.8-8.7-21.1-9.5-29.8-1.7
			c-8.4,7.4-9.4,20-2.7,28.7l-5.1,4.6l-2-2.2l-18.6,16.5l5.9,6.6l18.6-16.5L72.4,102.1z M79.6,68.1c7.9-7,20-6.3,27,1.6
			c7,7.9,6.3,20-1.6,27c-7.9,7-20,6.3-27-1.6C71,87.2,71.7,75.1,79.6,68.1z"/>
	</g>
</g>
<path class="st6" d="M129.6,101c0,7.3-7.5,13.3-16.9,13.5c-3.5,2.6-10,3.1-12.9,3.1l-2.3,0l1.8-1.4c1.4-1.1,2.5-2.5,3.2-4
	c-4.6-2.4-7.7-6.6-7.7-11.2c0-7.5,7.8-13.5,17.4-13.5C121.8,87.5,129.6,93.6,129.6,101z M65.8,112.3c2.9-1.5,4.8-4.1,4.8-7
	c0-4.6-4.8-8.4-10.8-8.4c-6,0-10.8,3.8-10.8,8.4c0,4.6,4.7,8.3,10.5,8.4c2.2,1.6,6.2,1.9,8,1.9l1.4,0l-1.1-0.9
	C66.9,114.1,66.3,113.2,65.8,112.3z M93.2,101c0,2.2,0.6,4.3,1.7,6.2c-6.4,3.9-16.7,4.6-21.4,4.7l-4.1,0.1l3.2-2.5
	c2.4-1.9,4.3-4.3,5.6-7C70,98.2,64.7,91,64.7,82.8C64.7,69.7,78.3,59,95.1,59c16.8,0,30.4,10.6,30.4,23.7c0,2.2-0.4,4.4-1.2,6.5
	c-3.3-2.2-7.5-3.5-12.1-3.5C101.7,85.8,93.2,92.6,93.2,101z M103.1,78.4c0,2.1,1.8,3.8,4,3.8c2.2,0,4-1.7,4-3.8c0-2.1-1.8-3.8-4-3.8
	C104.9,74.6,103.1,76.3,103.1,78.4z M86.6,78.4c0-2.1-1.8-3.8-4-3.8c-2.2,0-4,1.7-4,3.8c0,2.1,1.8,3.8,4,3.8
	C84.9,82.3,86.6,80.5,86.6,78.4z M95.3,82.3c2.2,0,4-1.7,4-3.8c0-2.1-1.8-3.8-4-3.8c-2.2,0-4,1.7-4,3.8
	C91.3,80.5,93.1,82.3,95.3,82.3z"/>
<path class="st2" d="M56.2,80.4c0.8-3.8,2.3-7.3,4.3-10.4l-4-4l8.8-8.8l4,4c3.1-2,6.7-3.5,10.5-4.2v-4.7h12.5v4.9
	c3.6,0.8,6.9,2.2,9.9,4.2l4.2-4.2l8.8,8.8l-4.2,4.2c2,3.1,3.5,6.5,4.2,10.3h5.6v12.5h-5.7c-0.7,3.2-2,6.2-3.6,9l-1.4-1.2l-2,2.3
	l-3.2-2.8c6.6-9.7,5-23-3.8-30.9c-4.3-3.8-9.9-6-15.7-6c-6.7,0-13.2,2.9-17.6,7.9c-4.2,4.7-6.3,10.8-5.9,17.1
	c0.4,6.3,3.2,12.1,7.9,16.3c4.3,3.8,9.9,6,15.6,6c5.7,0,11.2-2,15.5-5.8l3.2,2.8l-2,2.3l5.2,4.6l-1.1,1.1l-4-4
	c-2.9,1.9-6.2,3.3-9.8,4.1v4.9H79.8v-4.8c-3.7-0.7-7.2-2.2-10.3-4.1l-3.8,3.8l-8.8-8.8l3.7-3.7c-2-3-3.5-6.4-4.3-10.1h-5.4V80.4
	H56.2z M106.2,107.4l-5.4-4.8c-8.2,8-21.3,8.5-30.1,0.7c-9.1-8.1-9.9-22-1.8-31.1c8.1-9.1,22-9.9,31.1-1.8
	c8.7,7.8,9.8,20.8,2.8,29.9l5.4,4.8l2-2.3l19.4,17.2l-6.1,6.9l-19.4-17.2L106.2,107.4z M98.7,72c-8.2-7.3-20.9-6.6-28.2,1.7
	c-7.3,8.2-6.6,20.9,1.6,28.2c8.2,7.3,20.9,6.6,28.2-1.6C107.6,91.9,106.9,79.3,98.7,72z M91,86.5c0-2.8-2.3-5-5.2-5
	c-2.8,0-5.2,2.2-5.2,5c0,2.8,2.3,5,5.2,5C88.7,91.5,91,89.2,91,86.5z"/>
</svg>
